<svg xmlns="http://www.w3.org/2000/svg" width="36" height="35.1" viewBox="0 0 36 35.1">
  <path id="Icon_simple-adobeaftereffects" data-name="Icon simple-adobeaftereffects" d="M0,.45v35.1H36V.45Zm1.5,1.5h33v32.1H1.5Zm8.676,18.375L8.988,24.8c-.026.125-.075.17-.222.17h-2.2c-.15,0-.174-.052-.15-.225l4.26-14.9a4.44,4.44,0,0,0,.147-1.23c0-.1.05-.15.125-.15H14.09c.1,0,.15.027.174.15l4.774,16.155c.024.123,0,.195-.125.195H16.438c-.123,0-.195-.045-.221-.144l-1.238-4.5h-4.8Zm4.209-2.436c-.42-1.659-1.44-5.3-1.809-7.05h-.024c-.321,1.755-1.134,4.722-1.755,7.05Zm8.04,1.536c.025,2.029.99,3.39,3.267,3.39a5.792,5.792,0,0,0,2.445-.465c.1-.048.176-.022.176.1v1.881a.326.326,0,0,1-.15.3,6.68,6.68,0,0,1-3.015.57c-3.96,0-5.445-2.92-5.445-6.187,0-3.54,1.833-6.435,5.051-6.435,3.267,0,4.406,2.75,4.406,4.976a7.311,7.311,0,0,1-.128,1.586.208.208,0,0,1-.2.191,21.163,21.163,0,0,1-2.5.1H22.425Zm3.045-2.062a8.3,8.3,0,0,0,1.113-.024c0-.1.025-.187.025-.261a2.1,2.1,0,0,0-1.959-2.316c-1.435,0-2.055,1.263-2.2,2.6h3.02Z" transform="translate(0 -0.45)" fill="#fff"/>
</svg>
