<svg xmlns="http://www.w3.org/2000/svg" width="36" height="35.1" viewBox="0 0 36 35.1">
  <path id="Icon_simple-adobeindesign" data-name="Icon simple-adobeindesign" d="M0,.45v35.1H36V.45Zm1.5,1.5h33v32.1H1.5ZM13.163,24.777c0,.15-.026.2-.2.2h-2.3c-.15,0-.2-.075-.2-.2V8.673c0-.15.075-.2.2-.2h2.33c.123,0,.172.05.172.174V24.777Zm2.655-5.808c0-3.59,2.367-6.385,6.153-6.385.321,0,.5,0,.792.023V8.625a.145.145,0,0,1,.15-.15H25.35c.126,0,.15.051.15.126V22.634a11.173,11.173,0,0,0,.075,1.506c0,.1-.03.125-.131.174a9.1,9.1,0,0,1-3.936.892c-3.319,0-5.7-2.055-5.7-6.237Zm6.945-3.936a2.223,2.223,0,0,0-.891-.15c-1.927,0-3.281,1.485-3.281,3.96,0,2.823,1.377,3.96,3.11,3.96a2.9,2.9,0,0,0,1.065-.173v-7.6Z" transform="translate(0 -0.45)" fill="#fff"/>
</svg>
