<svg xmlns="http://www.w3.org/2000/svg" width="36" height="35.1" viewBox="0 0 36 35.1">
  <path id="Icon_simple-adobelightroomclassic" data-name="Icon simple-adobelightroomclassic" d="M0,.45v35.1H36V.45Zm1.5,1.5h33v32.1H1.5ZM9.972,24.938c-.174,0-.222-.075-.222-.222V8.6c0-.125.05-.2.174-.2H12.3c.126,0,.15.056.15.18v13.89h6.188c.125,0,.159.049.135.174l-.372,2.13a.2.2,0,0,1-.222.173h-8.2Zm11.1-9.714c0-.18,0-.624-.075-1.465,0-.125.027-.15.126-.2a15.877,15.877,0,0,1,5.513-1.038c.12,0,.168.026.168.15V14.85c0,.126-.049.15-.174.15a8.784,8.784,0,0,0-2.865.3v9.465c0,.123-.049.173-.174.173H21.239c-.12,0-.171-.049-.171-.174v-9.54Z" transform="translate(0 -0.45)" fill="#fff"/>
</svg>
