<svg id="Icon_ionic-logo-android" data-name="Icon ionic-logo-android" xmlns="http://www.w3.org/2000/svg" width="67.259" height="73.382" viewBox="0 0 67.259 73.382">
  <g id="Grupo_13" data-name="Grupo 13" transform="translate(0 21.41)">
    <path id="Trazado_10" data-name="Trazado 10" d="M10.125,28.1v17.12A2.484,2.484,0,0,0,12.3,47.894h5.465V57.83a4.586,4.586,0,1,0,9.172,0V47.894H36.3V57.83a4.566,4.566,0,0,0,1.681,3.554,4.269,4.269,0,0,0,2.809,1.032h.1a4.575,4.575,0,0,0,4.586-4.586V47.894h5.274a2.463,2.463,0,0,0,2.178-2.656V13.5h-42.8Z" transform="translate(2.104 -10.443)" fill="#fff"/>
    <path id="Trazado_11" data-name="Trazado 11" d="M31.586,12.375A4.575,4.575,0,0,0,27,16.961V35.3a4.586,4.586,0,1,0,9.172,0V16.961A4.575,4.575,0,0,0,31.586,12.375Z" transform="translate(31.087 -12.375)" fill="#fff"/>
    <path id="Trazado_12" data-name="Trazado 12" d="M10.211,12.375a4.575,4.575,0,0,0-4.586,4.586V35.3a4.586,4.586,0,0,0,9.172,0V16.961A4.575,4.575,0,0,0,10.211,12.375Z" transform="translate(-5.625 -12.375)" fill="#fff"/>
  </g>
  <path id="Trazado_13" data-name="Trazado 13" d="M42.073,9.3l3.535-4.185c.076-.1-.038-.306-.248-.478-.21-.153-.459-.191-.516-.076L41.175,8.92a25.957,25.957,0,0,0-9.668-1.681A26.178,26.178,0,0,0,21.8,8.862l-3.63-4.28c-.076-.1-.306-.076-.516.076s-.325.344-.248.478l3.5,4.127c-9.21,3.993-10.586,13.8-10.777,16.662H52.849C52.678,23.04,51.321,13.372,42.073,9.3ZM22.125,18.817a2.542,2.542,0,1,1,2.58-2.541A2.573,2.573,0,0,1,22.125,18.817Zm18.8,0a2.542,2.542,0,1,1,2.58-2.541A2.573,2.573,0,0,1,40.926,18.817Z" transform="translate(2.104 -4.497)" fill="#fff"/>
</svg>
