<svg xmlns="http://www.w3.org/2000/svg" width="21.313" height="20.78" viewBox="0 0 21.313 20.78">
  <path id="Icon_awesome-github" data-name="Icon awesome-github" d="M7.129,17.295c0,.086-.1.155-.223.155-.142.013-.241-.056-.241-.155s.1-.155.223-.155S7.129,17.2,7.129,17.295ZM5.792,17.1c-.03.086.056.185.185.211a.2.2,0,0,0,.266-.086c.026-.086-.056-.185-.185-.223A.221.221,0,0,0,5.792,17.1Zm1.9-.073c-.125.03-.211.112-.2.211s.125.142.254.112.211-.112.2-.2S7.816,17.015,7.691,17.028ZM10.519.563A10.3,10.3,0,0,0,0,11.047,10.773,10.773,0,0,0,7.283,21.325c.55.1.743-.241.743-.52s-.013-1.736-.013-2.638c0,0-3.008.645-3.639-1.28,0,0-.49-1.25-1.195-1.573,0,0-.984-.675.069-.662a2.268,2.268,0,0,1,1.659,1.109,2.271,2.271,0,0,0,3.132.9,2.388,2.388,0,0,1,.688-1.448C6.325,14.944,3.9,14.6,3.9,10.462A3.257,3.257,0,0,1,4.916,7.932a4.06,4.06,0,0,1,.112-2.918c.9-.279,2.965,1.16,2.965,1.16a10.151,10.151,0,0,1,5.4,0s2.067-1.444,2.965-1.16a4.058,4.058,0,0,1,.112,2.918,3.34,3.34,0,0,1,1.109,2.531c0,4.146-2.531,4.477-4.933,4.748a2.541,2.541,0,0,1,.73,1.994c0,1.448-.013,3.24-.013,3.592,0,.279.2.619.743.52a10.673,10.673,0,0,0,7.21-10.27A10.536,10.536,0,0,0,10.519.563ZM4.177,15.382c-.056.043-.043.142.03.223s.168.1.223.043.043-.142-.03-.223S4.232,15.327,4.177,15.382Zm-.464-.348c-.03.056.013.125.1.168A.128.128,0,0,0,4,15.172c.03-.056-.013-.125-.1-.168C3.811,14.979,3.743,14.991,3.712,15.034ZM5.1,16.564c-.069.056-.043.185.056.266.1.1.223.112.279.043s.03-.185-.056-.266C5.289,16.508,5.161,16.5,5.1,16.564Zm-.49-.632c-.069.043-.069.155,0,.254s.185.142.241.1a.2.2,0,0,0,0-.266C4.8,15.92,4.684,15.877,4.615,15.932Z" transform="translate(0 -0.563)" fill="#fff"/>
</svg>
