<svg xmlns="http://www.w3.org/2000/svg" width="71.015" height="96.323" viewBox="0 0 71.015 96.323">
  <path id="Icon_awesome-java" data-name="Icon awesome-java" d="M51.9,58.865a30.411,30.411,0,0,1,4.4-2.352s-7.281,1.317-14.523,1.919c-8.861.734-18.38.884-23.158.245-11.306-1.505,6.208-5.663,6.208-5.663A33.32,33.32,0,0,0,9.668,56.589C-.209,61.367,34.124,63.549,51.9,58.865ZM35.836,52.826c-3.574-8.033-15.633-15.088,0-27.429,19.5-15.389,9.5-25.4,9.5-25.4,4.045,15.9-14.222,20.713-20.826,30.59-4.5,6.754,2.2,14,11.325,22.237ZM57.4,19.678c.019,0-32.96,8.24-17.214,26.375,4.647,5.343-1.223,10.159-1.223,10.159s11.8-6.1,6.378-13.714C40.276,35.387,36.4,31.85,57.4,19.678ZM56.248,70.567a2.293,2.293,0,0,1-.376.489c24.137-6.34,15.257-22.368,3.725-18.3a3.26,3.26,0,0,0-1.543,1.185,13.254,13.254,0,0,1,2.069-.564C65.955,52.149,74.327,61.179,56.248,70.567Zm8.872,11.72s2.728,2.239-2.991,3.988c-10.893,3.292-45.3,4.289-54.858.132-3.443-1.486,3.01-3.574,5.042-4.007a13.648,13.648,0,0,1,3.33-.376c-3.819-2.69-24.7,5.286-10.61,7.563C43.455,95.832,75.091,86.783,65.12,82.287ZM23.062,74.5c-14.806,4.139,9.011,12.68,27.862,4.609a34.972,34.972,0,0,1-5.305-2.6c-8.409,1.6-12.3,1.712-19.942.847-6.3-.715-2.615-2.86-2.615-2.86ZM56.888,92.784c-14.806,2.784-33.073,2.464-43.89.677,0-.019,2.22,1.825,13.62,2.559C43.963,97.13,70.6,95.4,71.223,87.2c0,0-1.2,3.1-14.335,5.587Zm-8.2-26.375C37.548,68.554,31.1,68.5,22.949,67.651c-6.3-.658-2.182-3.706-2.182-3.706C4.438,69.363,29.835,75.5,52.655,68.817a11.357,11.357,0,0,1-3.969-2.408Z" transform="translate(-0.208)" fill="#fff"/>
</svg>
