<svg xmlns="http://www.w3.org/2000/svg" width="15.743" height="31.5" viewBox="0 0 15.743 31.5">
  <path id="phone" data-name="Icon ionic-ios-phone-portrait" d="M23.6,2.25H12.452a2.314,2.314,0,0,0-2.327,2.313V31.352a2.382,2.382,0,0,0,2.327,2.4H23.6a2.335,2.335,0,0,0,2.271-2.4V4.563A2.256,2.256,0,0,0,23.6,2.25ZM16.945,3.867h2.109a.281.281,0,0,1,0,.563H16.945a.281.281,0,0,1,0-.562ZM18.035,32.7a1.223,1.223,0,1,1,1.223-1.223A1.224,1.224,0,0,1,18.035,32.7Zm6.574-3.445H11.391a.141.141,0,0,1-.141-.141V5.977a.141.141,0,0,1,.141-.141H24.609a.141.141,0,0,1,.141.141V29.109A.141.141,0,0,1,24.609,29.25Z" transform="translate(-10.125 -2.25)" fill="#fff"/>
</svg>
