<svg xmlns="http://www.w3.org/2000/svg" width="88.097" height="46.343" viewBox="0 0 88.097 46.343">
  <path id="Icon_simple-php" data-name="Icon simple-php" d="M25.732,25.12H22.267l-1.89,9.72h3.076a7.443,7.443,0,0,0,4.559-1.153,6.121,6.121,0,0,0,2.019-3.851q.507-2.588-.455-3.652c-.642-.708-1.92-1.065-3.843-1.065ZM44.049,8.532C19.723,8.532,0,18.905,0,31.7S19.723,54.875,44.049,54.875,88.1,44.5,88.1,31.7,68.374,8.532,44.049,8.532ZM32.082,35.883a8.908,8.908,0,0,1-3.366,2.023,15.684,15.684,0,0,1-4.717.6H19.664l-1.2,6.17H13.405L17.92,21.457h9.727q4.388,0,6.4,2.305t1.211,6.431a10.119,10.119,0,0,1-3.179,5.69Zm14.771,2.625,1.993-10.274a2.776,2.776,0,0,0-.25-2.39,3.523,3.523,0,0,0-2.522-.639H42.066L39.482,38.511H34.461l4.515-23.225h5.018l-1.2,6.174h4.471q4.223,0,5.822,1.472t.965,4.768l-2.1,10.807h-5.1Zm27.886-8.314A10.211,10.211,0,0,1,73.62,33.3a10.483,10.483,0,0,1-2.059,2.581,8.957,8.957,0,0,1-3.366,2.023,15.693,15.693,0,0,1-4.721.6H59.143l-1.2,6.174H52.884L57.4,21.46h9.724q4.388,0,6.4,2.305t1.215,6.427ZM65.214,25.12H61.752l-1.894,9.72h3.076a7.428,7.428,0,0,0,4.559-1.153,6.141,6.141,0,0,0,2.023-3.851c.338-1.725.18-2.944-.459-3.652s-1.923-1.065-3.843-1.065Z" transform="translate(0 -8.532)" fill="#fff"/>
</svg>
